##     ## ##    ## ####  #######  ##     ## ######## 
##     ## ###   ##  ##  ##     ## ##     ## ##       
##     ## ####  ##  ##  ##     ## ##     ## ##       
##     ## ## ## ##  ##  ##     ## ##     ## ######   
##     ## ##  ####  ##  ##  ## ## ##     ## ##       
##     ## ##   ###  ##  ##    ##  ##     ## ##       
 #######  ##    ## ####  ##### ##  #######  ######## 


#############Credits To DiNGiE & Unique#############


General
Complete name : Dredd 2012 CAM READNFO x264 AAC-UNiQUE.mp4
Format : MPEG-4
Format profile : Base Media
Codec ID : isom
File size : 1.39 GiB
Duration : 1h 28mn
Overall bit rate mode : Variable
Overall bit rate : 2 262 Kbps
Encoded date : UTC 2012-09-28 16:19:04

Video
ID : 1
Format : AVC
Format/Info : Advanced Video Codec
Format profile : High@L4.1
Format settings, CABAC : Yes
Format settings, ReFrames : 3 frames
Codec ID : avc1
Codec ID/Info : Advanced Video Coding
Duration : 1h 28mn
Bit rate mode : Variable
Bit rate : 2 172 Kbps
Maximum bit rate : 40.0 Mbps
Width : 720 pixels
Height : 288 pixels
Display aspect ratio : 2.500
Frame rate mode : Constant
Frame rate : 29.970 fps
Color space : YUV
Chroma subsampling : 4:2:0
Bit depth : 8 bits
Scan type : Progressive
Bits/(Pixel*Frame) : 0.350
Stream size : 1.34 GiB (96%)
Writing library : x264 core 128 r2216 198a7ea

Audio
ID : 2
Format : AAC
Format/Info : Advanced Audio Codec
Format profile : LC
Codec ID : 40
Duration : 1h 28mn
Bit rate mode : Variable
Bit rate : 86.2 Kbps
Maximum bit rate : 108 Kbps
Channel(s) : 2 channels
Channel positions : Front: L R
Sampling rate : 44.1 KHz
Compression mode : Lossy
Stream size : 54.4 MiB (4%)
Language : English
Encoded date : UTC 2012-09-28 16:19:45
Source : 26K - Thanks! 

Storyline
In a violent, futuristic city where the police have the authority to act as judge, jury and executioner, a cop teams with a trainee to take down a gang that deals the reality-altering drug, SLO-MO.

iMDB: 
http://www.imdb.com/title/tt1343727

Screen Shots:
     
http://i.imgur.com/kqLWz.png
 
http://i.imgur.com/2XTlZ.png
 
http://i.imgur.com/w61A8.png
 
http://i.imgur.com/oqrfE.png
 
http://i.imgur.com/rmHiu.png
 
http://i.imgur.com/375TV.png
 
http://i.imgur.com/p8MmK.png
 
http://i.imgur.com/yLtyf.png
 
http://i.imgur.com/IZ21X.png


#############Credits To DiNGiE & Unique#############


##     ## ##    ## ####  #######  ##     ## ######## 
##     ## ###   ##  ##  ##     ## ##     ## ##       
##     ## ####  ##  ##  ##     ## ##     ## ##       
##     ## ## ## ##  ##  ##     ## ##     ## ######   
##     ## ##  ####  ##  ##  ## ## ##     ## ##       
##     ## ##   ###  ##  ##    ##  ##     ## ##       
 #######  ##    ## ####  ##### ##  #######  ######## 